<svg width="720" height="440" viewBox="0 0 720 440" xmlns="http://www.w3.org/2000/svg">
<title>Planet surface (placeholder)</title>
<defs>
<linearGradient id="ground" x1="0" y1="0" x2="0" y2="1">
<stop offset="0" stop-color="#27384a"/>
<stop offset="0.4" stop-color="#1a2638"/>
<stop offset="1" stop-color="#0c1320"/>
</linearGradient>
</defs>
<path d="M0,180 Q360,60 720,180 L720,150 Q360,28 0,150 Z" fill="#5ab0e0" opacity="0.14"/>
<path d="M0,180 Q360,60 720,180 L720,440 L0,440 Z" fill="url(#ground)"/>
<path d="M0,180 Q360,60 720,180" fill="none" stroke="#5ab0e0" stroke-width="7" opacity="0.22"/>
<path d="M0,180 Q360,60 720,180" fill="none" stroke="#bfe9ff" stroke-width="2.5" opacity="0.75"/>
<path d="M40,272 Q360,168 680,272" fill="none" stroke="#33485e" stroke-width="2" opacity="0.45"/>
<path d="M70,344 Q360,256 650,344" fill="none" stroke="#2a3c50" stroke-width="2" opacity="0.4"/>
<ellipse cx="185" cy="372" rx="44" ry="11" fill="#0d1624" opacity="0.55"/>
<ellipse cx="520" cy="392" rx="58" ry="13" fill="#0d1624" opacity="0.55"/>
<ellipse cx="360" cy="418" rx="70" ry="14" fill="#0d1624" opacity="0.5"/>
<circle cx="120" cy="300" r="2.4" fill="#7fd8ff" opacity="0.7"/>
<circle cx="300" cy="250" r="2" fill="#7fd8ff" opacity="0.6"/>
<circle cx="470" cy="270" r="2.2" fill="#7fd8ff" opacity="0.65"/>
<circle cx="610" cy="300" r="2" fill="#7fd8ff" opacity="0.6"/>
</svg>
