<svg width="720" height="1280" viewBox="0 0 720 1280" xmlns="http://www.w3.org/2000/svg">
<title>Space battlefield background</title>
<defs>
<linearGradient id="sky" x1="0" y1="0" x2="0" y2="1">
<stop offset="0" stop-color="#0a0f20"/>
<stop offset="0.55" stop-color="#0b1226"/>
<stop offset="1" stop-color="#090b16"/>
</linearGradient>
<radialGradient id="neb" cx="0.28" cy="0.4" r="0.55">
<stop offset="0" stop-color="#3b2c6b" stop-opacity="0.45"/>
<stop offset="1" stop-color="#3b2c6b" stop-opacity="0"/>
</radialGradient>
<radialGradient id="neb2" cx="0.78" cy="0.62" r="0.5">
<stop offset="0" stop-color="#15514a" stop-opacity="0.38"/>
<stop offset="1" stop-color="#15514a" stop-opacity="0"/>
</radialGradient>
<radialGradient id="baseglow" cx="0.5" cy="1" r="0.55">
<stop offset="0" stop-color="#1d9e75" stop-opacity="0.22"/>
<stop offset="1" stop-color="#1d9e75" stop-opacity="0"/>
</radialGradient>
</defs>
<rect width="720" height="1280" fill="url(#sky)"/>
<rect width="720" height="1280" fill="url(#neb)"/>
<rect width="720" height="1280" fill="url(#neb2)"/>
<circle cx="360" cy="-330" r="500" fill="#101a34"/>
<circle cx="360" cy="-330" r="500" fill="none" stroke="#33457e" stroke-width="3" opacity="0.6"/>
<path d="M0 150 Q360 188 720 150" fill="none" stroke="#5169a8" stroke-width="2" opacity="0.35"/>
<rect width="720" height="1280" fill="url(#baseglow)"/>
<g fill="#cdd9f0">
<circle cx="70" cy="240" r="2.2"/><circle cx="180" cy="320" r="1.4" opacity="0.7"/><circle cx="300" cy="220" r="1.8"/><circle cx="430" cy="300" r="1.3" opacity="0.6"/><circle cx="560" cy="250" r="2" opacity="0.85"/><circle cx="650" cy="350" r="1.5"/><circle cx="120" cy="430" r="1.6" opacity="0.7"/><circle cx="260" cy="470" r="1.2" opacity="0.5"/><circle cx="390" cy="420" r="2.1"/><circle cx="520" cy="480" r="1.4" opacity="0.7"/><circle cx="630" cy="520" r="1.7"/><circle cx="60" cy="560" r="1.5" opacity="0.6"/><circle cx="200" cy="600" r="2" opacity="0.8"/><circle cx="340" cy="560" r="1.3"/><circle cx="470" cy="620" r="1.6" opacity="0.7"/><circle cx="600" cy="660" r="1.4" opacity="0.6"/><circle cx="90" cy="710" r="1.8"/><circle cx="250" cy="740" r="1.3" opacity="0.6"/><circle cx="410" cy="700" r="1.5" opacity="0.75"/><circle cx="550" cy="760" r="2" opacity="0.85"/><circle cx="680" cy="800" r="1.4"/><circle cx="140" cy="850" r="1.6" opacity="0.7"/><circle cx="300" cy="880" r="1.3" opacity="0.55"/><circle cx="450" cy="840" r="1.9"/><circle cx="580" cy="900" r="1.4" opacity="0.7"/><circle cx="70" cy="960" r="1.7" opacity="0.8"/><circle cx="230" cy="1000" r="1.3"/><circle cx="380" cy="960" r="1.5" opacity="0.65"/><circle cx="520" cy="1020" r="1.8"/><circle cx="650" cy="1050" r="1.3" opacity="0.6"/><circle cx="160" cy="1090" r="1.6" opacity="0.7"/><circle cx="330" cy="1130" r="1.4"/><circle cx="480" cy="1100" r="1.7" opacity="0.75"/><circle cx="600" cy="1160" r="1.3" opacity="0.6"/><circle cx="110" cy="1200" r="1.5" opacity="0.7"/>
</g>
</svg>
