<svg width="320" height="640" viewBox="0 0 320 640" xmlns="http://www.w3.org/2000/svg" role="img">
<title>Battle screen concept</title>
<desc>Portrait phone mockup: enemies descend through open space toward two rows of hex-mounted defenses above the base. HUD shows level, next-wave preview, Material and Core counts.</desc>
<rect x="0" y="0" width="320" height="640" fill="#0B1020"/>
<circle cx="30" cy="70" r="1.2" fill="#8b9bb4"/><circle cx="290" cy="55" r="1" fill="#8b9bb4"/><circle cx="150" cy="50" r="1.4" fill="#aebad1" opacity="0.8"/><circle cx="60" cy="130" r="1" fill="#8b9bb4" opacity="0.6"/><circle cx="250" cy="110" r="1.3" fill="#aebad1"/><circle cx="105" cy="95" r="1" fill="#8b9bb4" opacity="0.7"/><circle cx="200" cy="220" r="1.2" fill="#8b9bb4" opacity="0.6"/><circle cx="40" cy="260" r="1" fill="#aebad1" opacity="0.5"/><circle cx="280" cy="300" r="1.2" fill="#8b9bb4"/><circle cx="90" cy="350" r="1" fill="#8b9bb4" opacity="0.6"/><circle cx="170" cy="400" r="1.3" fill="#aebad1" opacity="0.7"/><circle cx="255" cy="430" r="1" fill="#8b9bb4" opacity="0.5"/><circle cx="20" cy="420" r="1.1" fill="#8b9bb4"/><circle cx="130" cy="180" r="1" fill="#aebad1" opacity="0.5"/>
<rect x="0" y="0" width="320" height="38" fill="#101830"/>
<text x="12" y="24" font-family="sans-serif" font-size="13" font-weight="500" fill="#e8edf7">L3</text>
<rect x="40" y="9" width="118" height="20" rx="10" fill="#1b2542"/>
<text x="50" y="23" font-family="sans-serif" font-size="11" fill="#9fb0d0">next: swarm · fast</text>
<polygon points="206,12 213,19 206,26 199,19" fill="#FAC775"/>
<text x="218" y="24" font-family="sans-serif" font-size="13" font-weight="500" fill="#FAEEDA">248</text>
<polygon points="262,11 269,15 269,23 262,27 255,23 255,15" fill="#AFA9EC"/>
<text x="275" y="24" font-family="sans-serif" font-size="13" font-weight="500" fill="#CECBF6">3</text>
<ellipse cx="160" cy="92" rx="36" ry="13" fill="#222c4e" stroke="#F0997B" stroke-width="1.5"/>
<rect x="148" y="86" width="24" height="5" rx="2" fill="#F0997B" opacity="0.7"/>
<circle cx="150" cy="116" r="3.5" fill="#F0997B"/><circle cx="166" cy="124" r="3.5" fill="#F0997B" opacity="0.8"/>
<polygon points="70,166 83,173 83,189 70,196 57,189 57,173" fill="#3a2417" stroke="#F0997B" stroke-width="2"/>
<line x1="60" y1="176" x2="80" y2="176" stroke="#F0997B" stroke-width="1" opacity="0.6"/>
<line x1="60" y1="184" x2="80" y2="184" stroke="#F0997B" stroke-width="1" opacity="0.6"/>
<circle cx="232" cy="152" r="4" fill="#ED93B1"/><circle cx="248" cy="142" r="4" fill="#ED93B1"/><circle cx="262" cy="158" r="4" fill="#ED93B1"/><circle cx="240" cy="170" r="4" fill="#ED93B1"/><circle cx="256" cy="180" r="4" fill="#ED93B1"/><circle cx="270" cy="172" r="4" fill="#ED93B1" opacity="0.85"/><circle cx="246" cy="192" r="4" fill="#ED93B1" opacity="0.85"/>
<polygon points="120,296 127,308 113,308" fill="#D85A30"/>
<polygon points="198,256 205,268 191,268" fill="#D85A30"/>
<path d="M150 330 l8 5 l-8 5" fill="none" stroke="#5DCAA5" stroke-width="2"/>
<path d="M178 352 l8 5 l-8 5" fill="none" stroke="#5DCAA5" stroke-width="2"/>
<line x1="97" y1="496" x2="240" y2="170" stroke="#5DCAA5" stroke-width="2" opacity="0.75"/>
<circle cx="240" cy="170" r="8" fill="none" stroke="#5DCAA5" stroke-width="1.5" opacity="0.6"/>
<rect x="137" y="455" width="3" height="10" fill="#cfe6ff"/>
<rect x="124" y="400" width="3" height="10" fill="#cfe6ff" opacity="0.85"/>
<rect x="106" y="330" width="3" height="10" fill="#cfe6ff" opacity="0.7"/>
<line x1="139" y1="496" x2="73" y2="198" stroke="#8b9bb4" stroke-width="1" stroke-dasharray="2 4" opacity="0.55"/>
<circle cx="222" cy="468" r="7" fill="none" stroke="#cfe6ff" stroke-width="1.5" opacity="0.6"/>
<circle cx="222" cy="468" r="3" fill="none" stroke="#cfe6ff" stroke-width="1" opacity="0.4"/>
<g stroke="#378ADD" stroke-width="1.5" fill="#141d38">
<polygon points="56,489.2 74,499.6 74,520.4 56,530.8 38,520.4 38,499.6"/>
<polygon points="97.6,489.2 115.6,499.6 115.6,520.4 97.6,530.8 79.6,520.4 79.6,499.6"/>
<polygon points="139.2,489.2 157.2,499.6 157.2,520.4 139.2,530.8 121.2,520.4 121.2,499.6"/>
<polygon points="222.4,489.2 240.4,499.6 240.4,520.4 222.4,530.8 204.4,520.4 204.4,499.6"/>
</g>
<g stroke="#2a3354" stroke-width="1.5" fill="#0e1530" stroke-dasharray="4 3">
<polygon points="180.8,489.2 198.8,499.6 198.8,520.4 180.8,530.8 162.8,520.4 162.8,499.6"/>
<polygon points="76.8,525.2 94.8,535.6 94.8,556.4 76.8,566.8 58.8,556.4 58.8,535.6"/>
<polygon points="160,525.2 178,535.6 178,556.4 160,566.8 142,556.4 142,535.6"/>
<polygon points="243.2,525.2 261.2,535.6 261.2,556.4 243.2,566.8 225.2,556.4 225.2,535.6"/>
<polygon points="284.8,525.2 302.8,535.6 302.8,556.4 284.8,566.8 266.8,556.4 266.8,535.6"/>
</g>
<polygon points="264,489.2 282,499.6 282,520.4 264,530.8 246,520.4 246,499.6" fill="#1b2034" stroke="#FAC775" stroke-width="2" stroke-dasharray="5 3"/>
<g stroke="#EF9F27" stroke-width="1.5" fill="#1f1a10">
<polygon points="118.4,525.2 136.4,535.6 136.4,556.4 118.4,566.8 100.4,556.4 100.4,535.6"/>
<polygon points="201.6,525.2 219.6,535.6 219.6,556.4 201.6,566.8 183.6,556.4 183.6,535.6"/>
</g>
<circle cx="56" cy="512" r="6" fill="none" stroke="#9fd4ff" stroke-width="2"/>
<line x1="56" y1="506" x2="56" y2="498" stroke="#9fd4ff" stroke-width="2"/>
<line x1="50" y1="510" x2="46" y2="504" stroke="#9fd4ff" stroke-width="1.5"/>
<line x1="62" y1="510" x2="66" y2="504" stroke="#9fd4ff" stroke-width="1.5"/>
<circle cx="97.6" cy="514" r="7" fill="none" stroke="#5DCAA5" stroke-width="2"/>
<line x1="97.6" y1="507" x2="97.6" y2="497" stroke="#5DCAA5" stroke-width="2.5"/>
<rect x="136.2" y="498" width="6" height="18" rx="2" fill="none" stroke="#9fd4ff" stroke-width="2"/>
<circle cx="139.2" cy="520" r="4" fill="#9fd4ff"/>
<line x1="216" y1="516" x2="210" y2="502" stroke="#9fd4ff" stroke-width="2.5"/>
<line x1="228" y1="516" x2="234" y2="502" stroke="#9fd4ff" stroke-width="2.5"/>
<circle cx="222.4" cy="518" r="4.5" fill="#9fd4ff"/>
<rect x="109" y="540" width="19" height="13" fill="none" stroke="#EF9F27" stroke-width="1.5"/>
<rect x="112" y="533" width="4" height="7" fill="#EF9F27"/>
<text x="118.4" y="563" font-family="sans-serif" font-size="11" fill="#FAC775" text-anchor="middle">+8</text>
<rect x="194" y="539" width="15" height="13" rx="2" fill="none" stroke="#EF9F27" stroke-width="1.5"/>
<path d="M198 536 l4 -4 l4 4" fill="none" stroke="#EF9F27" stroke-width="1.5"/>
<rect x="186" y="452" width="124" height="26" rx="13" fill="#1b2542" stroke="#FAC775" stroke-width="1"/>
<text x="196" y="469" font-family="sans-serif" font-size="11" fill="#FAC775">+ arc coil · 60</text>
<polygon points="296,469 303,476 296,483 289,476" fill="#FAC775" opacity="0.9"/>
<rect x="0" y="586" width="320" height="54" fill="#101830"/>
<text x="12" y="612" font-family="sans-serif" font-size="12" font-weight="500" fill="#9fb0d0">base</text>
<rect x="52" y="602" width="216" height="12" rx="6" fill="#1b2542"/>
<rect x="52" y="602" width="151" height="12" rx="6" fill="#5DCAA5"/>
<text x="276" y="613" font-family="sans-serif" font-size="12" font-weight="500" fill="#e8edf7">70</text>
<rect x="52" y="622" width="216" height="6" rx="3" fill="#1b2542"/>
<rect x="52" y="622" width="86" height="6" rx="3" fill="#7F77DD"/>
<text x="12" y="630" font-family="sans-serif" font-size="11" fill="#9fb0d0">wave</text>
</svg>
