<svg width="320" height="640" viewBox="0 0 320 640" xmlns="http://www.w3.org/2000/svg" role="img">
<title>Defense placement interaction concept</title>
<desc>Mid-battle placement: drag a defense card from the bottom tray onto the hex grid. Valid hexes light up, a ghost with range ring previews the drop, and dropping next to a same-type defense offers a merge. Numbered pins: 1 tray card, 2 ghost preview with range ring, 3 valid hexes, 4 merge chip.</desc>
<rect x="0" y="0" width="320" height="640" fill="#0B1020"/>
<circle cx="40" cy="80" r="1.2" fill="#8b9bb4"/><circle cx="270" cy="60" r="1" fill="#8b9bb4"/><circle cx="160" cy="120" r="1.3" fill="#aebad1" opacity="0.7"/><circle cx="90" cy="200" r="1" fill="#8b9bb4" opacity="0.5"/><circle cx="230" cy="240" r="1.2" fill="#8b9bb4" opacity="0.6"/>
<rect x="0" y="0" width="320" height="38" fill="#101830"/>
<text x="12" y="24" font-family="sans-serif" font-size="13" font-weight="500" fill="#e8edf7">L3</text>
<polygon points="206,12 213,19 206,26 199,19" fill="#FAC775"/>
<text x="218" y="24" font-family="sans-serif" font-size="13" font-weight="500" fill="#FAEEDA">203</text>
<polygon points="262,11 269,15 269,23 262,27 255,23 255,15" fill="#AFA9EC"/>
<text x="275" y="24" font-family="sans-serif" font-size="13" font-weight="500" fill="#CECBF6">3</text>
<g opacity="0.35">
<circle cx="120" cy="100" r="4" fill="#ED93B1"/><circle cx="138" cy="88" r="4" fill="#ED93B1"/><circle cx="152" cy="106" r="4" fill="#ED93B1"/>
<polygon points="230,150 237,162 223,162" fill="#D85A30"/>
<ellipse cx="80" cy="140" rx="26" ry="10" fill="#222c4e" stroke="#F0997B" stroke-width="1.5"/>
</g>
<circle cx="180.8" cy="510" r="85" fill="none" stroke="#5DCAA5" stroke-width="1.5" stroke-dasharray="5 5" opacity="0.5"/>
<g stroke="#378ADD" stroke-width="1.5" fill="#141d38">
<polygon points="97.6,489.2 115.6,499.6 115.6,520.4 97.6,530.8 79.6,520.4 79.6,499.6"/>
<polygon points="139.2,489.2 157.2,499.6 157.2,520.4 139.2,530.8 121.2,520.4 121.2,499.6"/>
<polygon points="222.4,489.2 240.4,499.6 240.4,520.4 222.4,530.8 204.4,520.4 204.4,499.6"/>
</g>
<g stroke="#EF9F27" stroke-width="1.5" fill="#1f1a10">
<polygon points="118.4,525.2 136.4,535.6 136.4,556.4 118.4,566.8 100.4,556.4 100.4,535.6"/>
</g>
<g stroke="#5DCAA5" stroke-width="2" fill="#10231f">
<polygon points="56,489.2 74,499.6 74,520.4 56,530.8 38,520.4 38,499.6"/>
<polygon points="264,489.2 282,499.6 282,520.4 264,530.8 246,520.4 246,499.6"/>
<polygon points="160,525.2 178,535.6 178,556.4 160,566.8 142,556.4 142,535.6"/>
<polygon points="201.6,525.2 219.6,535.6 219.6,556.4 201.6,566.8 183.6,556.4 183.6,535.6"/>
<polygon points="243.2,525.2 261.2,535.6 261.2,556.4 243.2,566.8 225.2,556.4 225.2,535.6"/>
</g>
<g stroke="#2a3354" stroke-width="1.5" fill="#0e1530" stroke-dasharray="4 3">
<polygon points="76.8,525.2 94.8,535.6 94.8,556.4 76.8,566.8 58.8,556.4 58.8,535.6"/>
<polygon points="284.8,525.2 302.8,535.6 302.8,556.4 284.8,566.8 266.8,556.4 266.8,535.6"/>
</g>
<polygon points="180.8,489.2 198.8,499.6 198.8,520.4 180.8,530.8 162.8,520.4 162.8,499.6" fill="#16302c" stroke="#5DCAA5" stroke-width="2.5"/>
<g opacity="0.55">
<line x1="174" y1="516" x2="168" y2="502" stroke="#9fd4ff" stroke-width="2.5"/>
<line x1="187" y1="516" x2="193" y2="502" stroke="#9fd4ff" stroke-width="2.5"/>
<circle cx="180.8" cy="518" r="4.5" fill="#9fd4ff"/>
</g>
<circle cx="97.6" cy="514" r="7" fill="none" stroke="#5DCAA5" stroke-width="2"/>
<line x1="97.6" y1="507" x2="97.6" y2="497" stroke="#5DCAA5" stroke-width="2.5"/>
<rect x="136.2" y="498" width="6" height="18" rx="2" fill="none" stroke="#9fd4ff" stroke-width="2"/>
<circle cx="139.2" cy="520" r="4" fill="#9fd4ff"/>
<line x1="216" y1="516" x2="210" y2="502" stroke="#9fd4ff" stroke-width="2.5"/>
<line x1="228" y1="516" x2="234" y2="502" stroke="#9fd4ff" stroke-width="2.5"/>
<circle cx="222.4" cy="518" r="4.5" fill="#9fd4ff"/>
<rect x="109" y="540" width="19" height="13" fill="none" stroke="#EF9F27" stroke-width="1.5"/>
<rect x="112" y="533" width="4" height="7" fill="#EF9F27"/>
<rect x="186" y="446" width="118" height="24" rx="12" fill="#1b2542" stroke="#EF9F27" stroke-width="1.5"/>
<text x="198" y="462" font-family="sans-serif" font-size="11" fill="#FAC775">merge → flak tier 2</text>
<line x1="240" y1="470" x2="228" y2="492" stroke="#EF9F27" stroke-width="1" stroke-dasharray="3 3"/>
<circle cx="190" cy="520" r="17" fill="#ffffff" opacity="0.22"/>
<circle cx="190" cy="520" r="17" fill="none" stroke="#ffffff" stroke-width="1" opacity="0.45"/>
<path d="M268 586 C 250 560, 215 545, 196 524" fill="none" stroke="#ffffff" stroke-width="1.5" stroke-dasharray="4 5" opacity="0.5"/>
<rect x="0" y="576" width="320" height="64" fill="#101830"/>
<rect x="10" y="586" width="68" height="46" rx="8" fill="#141d38" stroke="#378ADD" stroke-width="1"/>
<rect x="41" y="594" width="5" height="14" rx="2" fill="none" stroke="#9fd4ff" stroke-width="1.5"/>
<circle cx="43.5" cy="611" r="3" fill="#9fd4ff"/>
<text x="44" y="627" font-family="sans-serif" font-size="11" fill="#9fb0d0" text-anchor="middle">50</text>
<rect x="86" y="586" width="68" height="46" rx="8" fill="#141d38" stroke="#378ADD" stroke-width="1"/>
<circle cx="120" cy="604" r="6" fill="none" stroke="#5DCAA5" stroke-width="1.5"/>
<line x1="120" y1="598" x2="120" y2="592" stroke="#5DCAA5" stroke-width="2"/>
<text x="120" y="627" font-family="sans-serif" font-size="11" fill="#9fb0d0" text-anchor="middle">40</text>
<rect x="162" y="586" width="68" height="46" rx="8" fill="#141d38" stroke="#EF9F27" stroke-width="1"/>
<rect x="187" y="598" width="16" height="11" fill="none" stroke="#EF9F27" stroke-width="1.5"/>
<rect x="190" y="592" width="3" height="6" fill="#EF9F27"/>
<text x="196" y="627" font-family="sans-serif" font-size="11" fill="#9fb0d0" text-anchor="middle">60</text>
<rect x="238" y="578" width="68" height="46" rx="8" fill="#1b2542" stroke="#FAC775" stroke-width="2"/>
<line x1="266" y1="600" x2="260" y2="588" stroke="#9fd4ff" stroke-width="2.5"/>
<line x1="278" y1="600" x2="284" y2="588" stroke="#9fd4ff" stroke-width="2.5"/>
<circle cx="272" cy="602" r="4" fill="#9fd4ff"/>
<text x="272" y="619" font-family="sans-serif" font-size="11" fill="#FAC775" text-anchor="middle">45</text>
<circle cx="272" cy="578" r="9" fill="#FAC775"/>
<text x="272" y="582" font-family="sans-serif" font-size="11" font-weight="500" fill="#412402" text-anchor="middle">1</text>
<circle cx="180.8" cy="478" r="9" fill="#FAC775"/>
<text x="180.8" y="482" font-family="sans-serif" font-size="11" font-weight="500" fill="#412402" text-anchor="middle">2</text>
<circle cx="290" cy="540" r="9" fill="#FAC775"/>
<text x="290" y="544" font-family="sans-serif" font-size="11" font-weight="500" fill="#412402" text-anchor="middle">3</text>
<circle cx="298" cy="458" r="9" fill="#FAC775"/>
<text x="298" y="462" font-family="sans-serif" font-size="11" font-weight="500" fill="#412402" text-anchor="middle">4</text>
</svg>
