<svg width="320" height="608" viewBox="0 0 320 608" xmlns="http://www.w3.org/2000/svg" role="img">
<title>Resupply screen concept</title>
<desc>Between-level hub: repair the base, slot or bag a power reward, gamba reroll, choose a pact, place defenses, then deploy to the next level.</desc>
<rect x="0" y="0" width="320" height="608" fill="#0B1020"/>
<rect x="0" y="0" width="320" height="38" fill="#101830"/>
<text x="12" y="24" font-family="sans-serif" font-size="13" font-weight="500" fill="#e8edf7">resupply · L3 → L4</text>
<polygon points="186,12 193,19 186,26 179,19" fill="#FAC775"/>
<text x="198" y="24" font-family="sans-serif" font-size="13" font-weight="500" fill="#FAEEDA">248</text>
<text x="226" y="24" font-family="sans-serif" font-size="11" fill="#EF9F27">+12 int</text>
<polygon points="276,11 283,15 283,23 276,27 269,23 269,15" fill="#AFA9EC"/>
<text x="289" y="24" font-family="sans-serif" font-size="13" font-weight="500" fill="#CECBF6">3</text>
<rect x="12" y="50" width="296" height="54" rx="8" fill="#141d38" stroke="#2a3354" stroke-width="1"/>
<text x="24" y="70" font-family="sans-serif" font-size="12" font-weight="500" fill="#e8edf7">base hull</text>
<rect x="24" y="80" width="150" height="10" rx="5" fill="#1b2542"/>
<rect x="24" y="80" width="105" height="10" rx="5" fill="#5DCAA5"/>
<text x="182" y="89" font-family="sans-serif" font-size="11" fill="#9fb0d0">70/100</text>
<rect x="224" y="62" width="72" height="30" rx="8" fill="none" stroke="#5DCAA5" stroke-width="1.5"/>
<text x="234" y="81" font-family="sans-serif" font-size="11" fill="#5DCAA5">+20 · 30</text>
<polygon points="287,72 292,77 287,82 282,77" fill="#FAC775"/>
<text x="12" y="126" font-family="sans-serif" font-size="11" fill="#9fb0d0">level reward — slot one, bag the rest</text>
<rect x="12" y="134" width="92" height="80" rx="8" fill="#1d1837" stroke="#FAC775" stroke-width="2"/>
<circle cx="58" cy="160" r="13" fill="none" stroke="#AFA9EC" stroke-width="2"/>
<path d="M50 160 l6 6 l10 -12" fill="none" stroke="#AFA9EC" stroke-width="2"/>
<text x="58" y="192" font-family="sans-serif" font-size="11" fill="#CECBF6" text-anchor="middle">ricochet</text>
<text x="58" y="205" font-family="sans-serif" font-size="11" fill="#CECBF6" text-anchor="middle">rounds</text>
<rect x="114" y="134" width="92" height="80" rx="8" fill="#1d1837" stroke="#7F77DD" stroke-width="1"/>
<circle cx="160" cy="160" r="13" fill="none" stroke="#AFA9EC" stroke-width="2"/>
<line x1="160" y1="151" x2="160" y2="169" stroke="#AFA9EC" stroke-width="2"/>
<line x1="151" y1="160" x2="169" y2="160" stroke="#AFA9EC" stroke-width="2"/>
<text x="160" y="192" font-family="sans-serif" font-size="11" fill="#CECBF6" text-anchor="middle">overcharge</text>
<rect x="216" y="134" width="92" height="80" rx="8" fill="#1d1837" stroke="#7F77DD" stroke-width="1"/>
<circle cx="262" cy="160" r="13" fill="none" stroke="#AFA9EC" stroke-width="2"/>
<circle cx="262" cy="160" r="5" fill="#AFA9EC"/>
<text x="262" y="192" font-family="sans-serif" font-size="11" fill="#CECBF6" text-anchor="middle">magnet</text>
<text x="262" y="205" font-family="sans-serif" font-size="11" fill="#CECBF6" text-anchor="middle">drones</text>
<text x="12" y="240" font-family="sans-serif" font-size="11" fill="#9fb0d0">slotted 2/3</text>
<rect x="12" y="248" width="38" height="38" rx="6" fill="#2a2350" stroke="#7F77DD" stroke-width="1.5"/>
<circle cx="31" cy="267" r="8" fill="none" stroke="#AFA9EC" stroke-width="2"/>
<rect x="58" y="248" width="38" height="38" rx="6" fill="#2a2350" stroke="#7F77DD" stroke-width="1.5"/>
<polygon points="77,259 83,267 77,275 71,267" fill="#AFA9EC"/>
<rect x="104" y="248" width="38" height="38" rx="6" fill="none" stroke="#2a3354" stroke-width="1.5" stroke-dasharray="4 3"/>
<rect x="238" y="248" width="70" height="38" rx="6" fill="none" stroke="#2a3354" stroke-width="1"/>
<text x="252" y="271" font-family="sans-serif" font-size="11" fill="#9fb0d0">bag 1/4</text>
<rect x="12" y="300" width="296" height="42" rx="8" fill="#141d38" stroke="#2a3354" stroke-width="1"/>
<text x="24" y="325" font-family="sans-serif" font-size="12" fill="#e8edf7">gamba — reroll reward offers</text>
<rect x="232" y="307" width="64" height="28" rx="8" fill="none" stroke="#EF9F27" stroke-width="1.5"/>
<text x="244" y="325" font-family="sans-serif" font-size="11" fill="#FAC775">25</text>
<polygon points="266,315 271,320 266,325 261,320" fill="#FAC775"/>
<text x="12" y="364" font-family="sans-serif" font-size="11" fill="#9fb0d0">choose a pact — applies for the rest of the run</text>
<rect x="12" y="372" width="144" height="104" rx="8" fill="#241210" stroke="#F0997B" stroke-width="2.5"/>
<text x="24" y="394" font-family="sans-serif" font-size="12" font-weight="500" fill="#F5C4B3">iron husks</text>
<text x="24" y="416" font-family="sans-serif" font-size="11" fill="#F0997B">+30% enemy armor</text>
<line x1="24" y1="428" x2="144" y2="428" stroke="#3a2417" stroke-width="1"/>
<text x="24" y="448" font-family="sans-serif" font-size="11" fill="#5DCAA5">+1 core per level</text>
<circle cx="138" cy="390" r="8" fill="#F0997B"/>
<path d="M134 390 l3 3 l6 -6" fill="none" stroke="#241210" stroke-width="2"/>
<rect x="164" y="372" width="144" height="104" rx="8" fill="#1c1426" stroke="#2a3354" stroke-width="1"/>
<text x="176" y="394" font-family="sans-serif" font-size="12" font-weight="500" fill="#9fb0d0">overdrive</text>
<text x="176" y="416" font-family="sans-serif" font-size="11" fill="#F0997B">2× enemy speed</text>
<line x1="176" y1="428" x2="296" y2="428" stroke="#2a3354" stroke-width="1"/>
<text x="176" y="448" font-family="sans-serif" font-size="11" fill="#5DCAA5">+50% material income</text>
<rect x="12" y="490" width="296" height="36" rx="8" fill="none" stroke="#378ADD" stroke-width="1.5"/>
<polygon points="30,500 38,504.6 38,513.4 30,518 22,513.4 22,504.6" fill="none" stroke="#85B7EB" stroke-width="1.5"/>
<text x="50" y="513" font-family="sans-serif" font-size="12" fill="#85B7EB">place / upgrade defenses</text>
<rect x="12" y="542" width="296" height="46" rx="10" fill="#5DCAA5"/>
<text x="160" y="570" font-family="sans-serif" font-size="14" font-weight="500" fill="#04342C" text-anchor="middle">deploy → level 4</text>
</svg>
